<svg id="Layer_1" data-name="Layer 1" xmlns="http://www.w3.org/2000/svg" viewBox="0 0 556 190"><defs><style>.cls-1{fill:#000;}</style></defs><path class="cls-1" d="M256.06,110.13l6.51,6.78-8.86,7.86-6.87-7.13a32.67,32.67,0,1,1,9.22-7.51ZM238,108.33,227.59,97.48l8.86-7.86,11.11,11.57a21.41,21.41,0,0,0,3.8-12.38c0-12.21-9-20.79-20.43-20.79s-20.42,8.58-20.42,20.79,9,20.69,20.42,20.69A22.7,22.7,0,0,0,238,108.33Z"/><path class="cls-1" d="M314.44,75.25v45.19H302.78v-5.06c-2.71,4.06-7.41,6.32-13.46,6.32-9.58,0-17.08-6.69-17.08-18.71V75.25h11.65v26.3c0,6.14,3.71,9.31,8.95,9.31,5.7,0,9.94-3.35,9.94-11.21V75.25Z"/><path class="cls-1" d="M323.75,62.69a7.19,7.19,0,1,1,7.14,7.14A7.29,7.29,0,0,1,323.75,62.69Zm1.36,12.56h11.66v45.19H325.11Z"/><path class="cls-1" d="M345.08,97.84C345.08,84.38,355.2,74,368.94,74a22.73,22.73,0,0,1,20.24,11.66l-10,5.88a11.16,11.16,0,0,0-10.3-6.06c-7,0-12.11,5.15-12.11,12.38s5.15,12.29,12.11,12.29c4.7,0,8.59-2.26,10.39-6L389.37,110a23.15,23.15,0,0,1-20.43,11.75C355.2,121.7,345.08,111.31,345.08,97.84Z"/><path class="cls-1" d="M423.62,120.44,407.17,99.92v20.52H395.51V57.17h11.66v38l15.55-19.88h13.91L418.47,97.57l18.71,22.87Z"/><path class="cls-1" d="M443,54.46h11.66v66H443Z"/><path class="cls-1" d="M507.22,75.25l-16.45,45.19c-4.7,13-12.38,18.7-23.86,18.07V127.67c6.42.09,9.67-2.62,11.84-8.68L460.22,75.25H473l11.74,30.36,10-30.36Z"/><path class="cls-1" d="M105.24,155.72a10.23,10.23,0,0,1-2.25-.26,9.84,9.84,0,0,1-7.79-8.81,3.49,3.49,0,0,1,0-.56l2-33.29-15.91-.06c-6.78,0-13.57,0-16.71-.07l-6.42,0a10,10,0,0,1-8.93-14.44L76.72,42.86a10,10,0,0,1,3.76-4.1,9.84,9.84,0,0,1,5.36-1.45l5.15.08,38.13.39a3.62,3.62,0,0,1,3.22,5.2L113.75,81.09a3.62,3.62,0,0,1-6.51-3.18L123.32,45l-37.6-.42a2.8,2.8,0,0,0-2.52,1.54L55.75,101.4a2.75,2.75,0,0,0,2.47,4l6.44,0,16.69.06,16.71.07,2.8,0a3.63,3.63,0,0,1,3.44,2.56l.2.66a3.49,3.49,0,0,1,.15,1.28l-2.21,36.11a2.76,2.76,0,0,0,5.09.91l36.24-61.52h-12a6.47,6.47,0,0,1-5.75-9.44l9.16-17.71a3.62,3.62,0,0,1,6.43,3.32l-8.58,16.6h11.07A7,7,0,0,1,150.19,89l-36.42,61.83A9.85,9.85,0,0,1,105.24,155.72Z"/></svg>